<svg width="50" height="50" viewBox="0 0 50 50" fill="none" xmlns="http://www.w3.org/2000/svg">
<rect x="2.5" y="2.5" width="45" height="45" rx="7.5" stroke="#1962E8" stroke-width="5"/>
<path d="M22 39.5C22 40.8807 20.8807 42 19.5 42C18.1193 42 17 40.8807 17 39.5C17 38.1193 18.1193 37 19.5 37C20.8807 37 22 38.1193 22 39.5Z" fill="white"/>
<rect x="17.5" y="8" width="4" height="27" rx="2" fill="white"/>
<path d="M33 39.5C33 40.8807 31.8807 42 30.5 42C29.1193 42 28 40.8807 28 39.5C28 38.1193 29.1193 37 30.5 37C31.8807 37 33 38.1193 33 39.5Z" fill="white"/>
<rect x="28.5" y="8" width="4" height="27" rx="2" fill="white"/>
</svg>
