<svg width="65" height="35" viewBox="0 0 65 35" fill="none" xmlns="http://www.w3.org/2000/svg">
<circle cx="17.5" cy="17.5" r="14.5" stroke="#818C99" stroke-width="6"/>
<path d="M29 14H61.5C63.433 14 65 15.567 65 17.5V17.5C65 19.433 63.433 21 61.5 21H29V14Z" fill="#818C99"/>
<path d="M45 19H49V28C49 29.1046 48.1046 30 47 30V30C45.8954 30 45 29.1046 45 28V19Z" fill="#818C99"/>
<path d="M51 19H55V26C55 27.1046 54.1046 28 53 28V28C51.8954 28 51 27.1046 51 26V19Z" fill="#818C99"/>
<path d="M57 19H61V28C61 29.1046 60.1046 30 59 30V30C57.8954 30 57 29.1046 57 28V19Z" fill="#818C99"/>
</svg>
