<svg width="65" height="35" viewBox="0 0 65 35" fill="none" xmlns="http://www.w3.org/2000/svg">
<circle cx="17.5" cy="17.5" r="14.5" fill="#E0E0E0" stroke="#E0E0E0" stroke-width="6"/>
<path d="M60.5 13.5C62.7091 13.5 64.5 15.2909 64.5 17.5C64.5 19.7091 62.7091 21.5 60.5 21.5H29.5V13.5H60.5Z" fill="#E0E0E0" stroke="#E0E0E0"/>
<path d="M48.5 19.5V28C48.5 28.8284 47.8284 29.5 47 29.5C46.1716 29.5 45.5 28.8284 45.5 28V19.5H48.5Z" fill="#E0E0E0" stroke="#E0E0E0"/>
<path d="M54.5 19.5V26C54.5 26.8284 53.8284 27.5 53 27.5C52.1716 27.5 51.5 26.8284 51.5 26V19.5H54.5Z" fill="#E0E0E0" stroke="#E0E0E0"/>
<path d="M60.5 19.5V28C60.5 28.8284 59.8284 29.5 59 29.5C58.1716 29.5 57.5 28.8284 57.5 28V19.5H60.5Z" fill="#E0E0E0" stroke="#E0E0E0"/>
</svg>
