<svg width="41" height="50" viewBox="0 0 41 50" fill="none" xmlns="http://www.w3.org/2000/svg">
<path d="M18 2H22C25.3137 2 28 4.68629 28 8V16.1816H12V8C12 4.68629 14.6863 2 18 2Z" stroke="#E0E0E0" stroke-width="4"/>
<rect x="2.5" y="16.1364" width="36" height="31.3636" rx="7.5" fill="#E0E0E0" stroke="#E0E0E0" stroke-width="5"/>
<path d="M20.5 23.2273C22.755 23.2273 24.4999 24.8787 24.5 26.8181C24.5 28.7575 22.7551 30.4089 20.5 30.4089C18.2449 30.4089 16.5 28.7575 16.5 26.8181C16.5001 24.8787 18.245 23.2273 20.5 23.2273Z" fill="#1C1C1C" stroke="#1C1C1C"/>
<path d="M21.5 28.5V38.5C21.5 39.0523 21.0523 39.5 20.5 39.5C19.9477 39.5 19.5 39.0523 19.5 38.5V28.5H21.5Z" fill="#1C1C1C" stroke="#1C1C1C"/>
</svg>
