<svg width="50" height="50" viewBox="0 0 50 50" fill="none" xmlns="http://www.w3.org/2000/svg">
<rect x="2.5" y="2.5" width="45" height="45" rx="7.5" stroke="#D52B24" stroke-width="5"/>
<path d="M17 39.5C17 40.8807 15.8807 42 14.5 42C13.1193 42 12 40.8807 12 39.5C12 38.1193 13.1193 37 14.5 37C15.8807 37 17 38.1193 17 39.5Z" fill="#F6F6F6"/>
<rect x="12.5" y="8" width="4" height="27" rx="2" fill="#F6F6F6"/>
<path d="M39 39.5C39 40.8807 37.8807 42 36.5 42C35.1193 42 34 40.8807 34 39.5C34 38.1193 35.1193 37 36.5 37C37.8807 37 39 38.1193 39 39.5Z" fill="#F6F6F6"/>
<rect x="34.5" y="8" width="4" height="27" rx="2" fill="#F6F6F6"/>
<path d="M28 39.5C28 40.8807 26.8807 42 25.5 42C24.1193 42 23 40.8807 23 39.5C23 38.1193 24.1193 37 25.5 37C26.8807 37 28 38.1193 28 39.5Z" fill="#F6F6F6"/>
<rect x="23.5" y="8" width="4" height="27" rx="2" fill="#F6F6F6"/>
</svg>
