<svg width="40" height="40" viewBox="0 0 40 40" fill="none" xmlns="http://www.w3.org/2000/svg">
<path d="M19.0432 2.01953C19.6557 1.7658 20.3446 1.7658 20.9572 2.01953L32.0373 6.60938C32.6499 6.86311 33.1371 7.35032 33.3908 7.96289L37.9807 19.043C38.2344 19.6555 38.2344 20.3445 37.9807 20.957L33.3908 32.0371C33.1371 32.6497 32.6499 33.1369 32.0373 33.3906L20.9572 37.9805C20.3446 38.2342 19.6557 38.2342 19.0432 37.9805L7.96307 33.3906C7.3505 33.1369 6.86329 32.6497 6.60956 32.0371L2.01971 20.957C1.76598 20.3445 1.76598 19.6555 2.01971 19.043L6.60956 7.96289C6.86329 7.35032 7.3505 6.86311 7.96307 6.60938L19.0432 2.01953Z" stroke="#D9D9D9" stroke-width="3"/>
<circle cx="20" cy="20" r="10" stroke="#D9D9D9" stroke-width="2"/>
</svg>
