<svg width="20" height="20" viewBox="0 0 20 20" fill="none" xmlns="http://www.w3.org/2000/svg">
<path d="M2 0.5H16C17.933 0.5 19.5 2.067 19.5 4V18C19.5 18.8284 18.8284 19.5 18 19.5H2C1.17157 19.5 0.5 18.8284 0.5 18V2C0.5 1.17157 1.17157 0.5 2 0.5Z" stroke="#D9D9D9"/>
<path d="M1 2.72217H17C18.3807 2.72217 19.5 3.84146 19.5 5.22217V17.9995C19.5 18.8279 18.8284 19.4995 18 19.4995H2C1.17157 19.4995 0.5 18.8279 0.5 17.9995V3.22217C0.5 2.94603 0.723858 2.72217 1 2.72217Z" stroke="#D9D9D9"/>
<path d="M1 4.94434H18C18.8284 4.94434 19.5 5.61591 19.5 6.44434V18C19.4999 18.8284 18.8284 19.5 18 19.5H2C1.17161 19.5 0.500059 18.8284 0.5 18V5.44434L0.509766 5.34375C0.556292 5.11578 0.758287 4.94434 1 4.94434Z" stroke="#D9D9D9"/>
<path d="M1 7.16675H18C18.8284 7.16675 19.5 7.83832 19.5 8.66675V17.9998C19.5 18.8282 18.8284 19.4998 18 19.4998H2C1.17157 19.4998 0.5 18.8282 0.5 17.9998V7.66675C0.5 7.39061 0.723857 7.16675 1 7.16675Z" stroke="#D9D9D9"/>
<rect y="11" width="20" height="9" rx="2" fill="#D9D9D9"/>
</svg>
