<svg width="32" height="30" viewBox="0 0 32 30" fill="none" xmlns="http://www.w3.org/2000/svg">
<mask id="path-1-inside-1_481_5" fill="white">
<path d="M0 5C0 2.23858 2.23858 0 5 0H18C19.6569 0 21 1.34315 21 3V27C21 28.6569 19.6569 30 18 30H5C2.23858 30 0 27.7614 0 25V5Z"/>
</mask>
<path d="M-2.2 5C-2.2 1.02355 1.02355 -2.2 5 -2.2H15.8C18.6719 -2.2 21 0.128119 21 3V3C21 2.55817 19.6569 2.2 18 2.2H5C3.4536 2.2 2.2 3.4536 2.2 5H-2.2ZM21 27C21 29.8719 18.6719 32.2 15.8 32.2H5C1.02355 32.2 -2.2 28.9764 -2.2 25H2.2C2.2 26.5464 3.4536 27.8 5 27.8H18C19.6569 27.8 21 27.4418 21 27V27ZM5 32.2C1.02355 32.2 -2.2 28.9764 -2.2 25V5C-2.2 1.02355 1.02355 -2.2 5 -2.2V2.2C3.4536 2.2 2.2 3.4536 2.2 5V25C2.2 26.5464 3.4536 27.8 5 27.8V32.2ZM5 27.8M21 0V30V0" fill="#8212D9" mask="url(#path-1-inside-1_481_5)"/>
<path d="M8 13.9C7.39249 13.9 6.9 14.3925 6.9 15C6.9 15.6075 7.39249 16.1 8 16.1V15V13.9ZM30.7778 15.7778C31.2074 15.3482 31.2074 14.6518 30.7778 14.2222L23.7775 7.22183C23.3479 6.79225 22.6514 6.79225 22.2218 7.22183C21.7922 7.6514 21.7922 8.34788 22.2218 8.77746L28.4444 15L22.2218 21.2225C21.7922 21.6521 21.7922 22.3486 22.2218 22.7782C22.6514 23.2078 23.3479 23.2078 23.7775 22.7782L30.7778 15.7778ZM8 15V16.1L30 16.1V15V13.9L8 13.9V15Z" fill="#8212D9"/>
<path d="M19 2H20C20.5523 2 21 2.44772 21 3V5C21 5.55228 20.5523 6 20 6V6C19.4477 6 19 5.55228 19 5V2Z" fill="#8212D9"/>
<path d="M19 25C19 24.4477 19.4477 24 20 24V24C20.5523 24 21 24.4477 21 25V27C21 27.5523 20.5523 28 20 28H19V25Z" fill="#8212D9"/>
</svg>
