<svg width="28" height="30" viewBox="0 0 28 30" fill="none" xmlns="http://www.w3.org/2000/svg">
<rect width="22" height="30" rx="5" fill="#D9D9D9"/>
<rect x="1" y="1" width="20" height="28" rx="4" stroke="black" stroke-opacity="0.25" stroke-width="2"/>
<path d="M7 13.9C6.39249 13.9 5.9 14.3925 5.9 15C5.9 15.6075 6.39249 16.1 7 16.1V15V13.9ZM26.7778 15.7778C27.2074 15.3482 27.2074 14.6518 26.7778 14.2222L19.7775 7.22183C19.3479 6.79225 18.6514 6.79225 18.2218 7.22183C17.7922 7.6514 17.7922 8.34788 18.2218 8.77746L24.4444 15L18.2218 21.2225C17.7922 21.6521 17.7922 22.3486 18.2218 22.7782C18.6514 23.2078 19.3479 23.2078 19.7775 22.7782L26.7778 15.7778ZM7 15V16.1L26 16.1V15V13.9L7 13.9V15Z" fill="#8212D9"/>
</svg>
