<svg width="40" height="40" viewBox="0 0 40 40" fill="none" xmlns="http://www.w3.org/2000/svg">
<path d="M19.2275 1.82812C19.7296 1.66502 20.2704 1.66502 20.7725 1.82812L30.0557 4.84473C30.5577 5.00785 30.9953 5.32587 31.3057 5.75293L37.0439 13.6494C37.3542 14.0765 37.5214 14.5913 37.5215 15.1191V24.8809C37.5214 25.4087 37.3542 25.9235 37.0439 26.3506L31.3057 34.2471C30.9953 34.6741 30.5577 34.9921 30.0557 35.1553L20.7725 38.1719C20.2704 38.335 19.7296 38.335 19.2275 38.1719L9.94434 35.1553C9.44228 34.9921 9.00465 34.6741 8.69434 34.2471L2.95605 26.3506C2.64577 25.9235 2.47856 25.4087 2.47852 24.8809V15.1191C2.47856 14.5913 2.64577 14.0765 2.95605 13.6494L8.69434 5.75293C9.00465 5.32588 9.44228 5.00786 9.94434 4.84473L19.2275 1.82812Z" stroke="#8212D9" stroke-width="3"/>
<circle cx="19.9956" cy="20" r="10" fill="#8212D9"/>
</svg>
