<svg width="40" height="40" viewBox="0 0 40 40" fill="none" xmlns="http://www.w3.org/2000/svg">
<path d="M19.2277 1.82812C19.7298 1.66502 20.2706 1.66502 20.7726 1.82812L30.0558 4.84473C30.5579 5.00786 30.9955 5.32588 31.3058 5.75293L37.0441 13.6494C37.3544 14.0765 37.5216 14.5913 37.5217 15.1191V24.8809C37.5216 25.4087 37.3544 25.9235 37.0441 26.3506L31.3058 34.2471C30.9955 34.6741 30.5579 34.9921 30.0558 35.1553L20.7726 38.1719C20.2706 38.335 19.7298 38.335 19.2277 38.1719L9.94452 35.1553C9.44246 34.9921 9.00483 34.6741 8.69452 34.2471L2.95624 26.3506C2.64596 25.9235 2.47874 25.4087 2.4787 24.8809V15.1191C2.47874 14.5913 2.64596 14.0765 2.95624 13.6494L8.69452 5.75293C9.00483 5.32588 9.44246 5.00786 9.94452 4.84473L19.2277 1.82812Z" stroke="white" stroke-width="3"/>
<circle cx="19.9956" cy="20" r="10" fill="white"/>
</svg>
