<svg width="30" height="30" viewBox="0 0 30 30" fill="none" xmlns="http://www.w3.org/2000/svg">
<circle cx="15" cy="15" r="14" stroke="#8212D9" stroke-width="2"/>
<mask id="path-2-inside-1_79_105" fill="white">
<path d="M15 3C15 1.34315 16.3563 -0.0301722 17.9801 0.299007C19.7138 0.650462 21.3796 1.30743 22.8969 2.24702C25.269 3.71587 27.1845 5.81721 28.4279 8.31486C29.6714 10.8125 30.1936 13.6074 29.9359 16.3856C29.6781 19.1637 28.6507 21.8149 26.969 24.0412C25.2873 26.2675 23.018 27.9806 20.4162 28.988C17.8144 29.9955 14.9831 30.2573 12.2407 29.744C9.49825 29.2308 6.9533 27.9628 4.89188 26.0827C3.57324 24.88 2.48589 23.4573 1.67384 21.8857C0.913253 20.4138 1.86345 18.7337 3.45718 18.2808L12.8202 15.6196C14.1101 15.2529 15 14.0748 15 12.7339V3Z"/>
</mask>
<path d="M15 3C15 1.34315 16.3563 -0.0301722 17.9801 0.299007C19.7138 0.650462 21.3796 1.30743 22.8969 2.24702C25.269 3.71587 27.1845 5.81721 28.4279 8.31486C29.6714 10.8125 30.1936 13.6074 29.9359 16.3856C29.6781 19.1637 28.6507 21.8149 26.969 24.0412C25.2873 26.2675 23.018 27.9806 20.4162 28.988C17.8144 29.9955 14.9831 30.2573 12.2407 29.744C9.49825 29.2308 6.9533 27.9628 4.89188 26.0827C3.57324 24.88 2.48589 23.4573 1.67384 21.8857C0.913253 20.4138 1.86345 18.7337 3.45718 18.2808L12.8202 15.6196C14.1101 15.2529 15 14.0748 15 12.7339V3Z" fill="#8212D9" stroke="#8212D9" stroke-width="4" mask="url(#path-2-inside-1_79_105)"/>
</svg>
